<mxfile host="Electron" modified="2024-07-11T08:29:56.874Z" agent="Mozilla/5.0 (Windows NT 10.0; Win64; x64) AppleWebKit/537.36 (KHTML, like Gecko) draw.io/24.6.4 Chrome/124.0.6367.207 Electron/30.0.6 Safari/537.36" etag="y4jzT4aGfj2I_4ZeVHMR" version="24.6.4" type="device">
  <diagram name="Страница — 1" id="sZKeb1uCV9wYCkYhp3Bc">
    <mxGraphModel dx="2049" dy="1206" grid="1" gridSize="10" guides="1" tooltips="1" connect="1" arrows="1" fold="1" page="1" pageScale="1" pageWidth="827" pageHeight="1169" math="0" shadow="0">
      <root>
        <mxCell id="0" />
        <mxCell id="1" parent="0" />
        <mxCell id="1KUKAzk6lROxXziW7GJg-56" value="" style="rounded=0;whiteSpace=wrap;html=1;fillColor=#b1ddf0;strokeColor=#10739e;" parent="1" vertex="1">
          <mxGeometry x="80" y="470" width="1890" height="1053" as="geometry" />
        </mxCell>
        <mxCell id="1KUKAzk6lROxXziW7GJg-128" value="" style="html=1;outlineConnect=0;whiteSpace=wrap;fillColor=#b0e3e6;shape=mxgraph.archimate3.application;appType=comp;archiType=square;strokeColor=#0e8088;" parent="1" vertex="1">
          <mxGeometry x="490" y="585" width="480" height="195" as="geometry" />
        </mxCell>
        <mxCell id="1KUKAzk6lROxXziW7GJg-122" value="" style="html=1;outlineConnect=0;whiteSpace=wrap;fillColor=#AFFFAF;shape=mxgraph.archimate3.application;appType=node;archiType=square;" parent="1" vertex="1">
          <mxGeometry x="1639" y="803" width="280" height="160" as="geometry" />
        </mxCell>
        <mxCell id="1KUKAzk6lROxXziW7GJg-121" value="" style="html=1;outlineConnect=0;whiteSpace=wrap;fillColor=#AFFFAF;shape=mxgraph.archimate3.application;appType=node;archiType=square;" parent="1" vertex="1">
          <mxGeometry x="175" y="810" width="1435" height="160" as="geometry" />
        </mxCell>
        <mxCell id="1KUKAzk6lROxXziW7GJg-95" value="" style="rounded=0;whiteSpace=wrap;html=1;fillColor=#d0cee2;strokeColor=#56517e;" parent="1" vertex="1">
          <mxGeometry x="80" y="150" width="1890" height="300" as="geometry" />
        </mxCell>
        <mxCell id="1KUKAzk6lROxXziW7GJg-90" value="" style="rounded=0;whiteSpace=wrap;html=1;fillColor=#fad7ac;strokeColor=#b46504;" parent="1" vertex="1">
          <mxGeometry x="1460" y="240" width="350" height="180" as="geometry" />
        </mxCell>
        <mxCell id="1KUKAzk6lROxXziW7GJg-47" style="edgeStyle=orthogonalEdgeStyle;rounded=0;orthogonalLoop=1;jettySize=auto;html=1;" parent="1" source="lSxu0LQNuOqlnwumbdj1-2" target="1KUKAzk6lROxXziW7GJg-23" edge="1">
          <mxGeometry relative="1" as="geometry" />
        </mxCell>
        <mxCell id="1KUKAzk6lROxXziW7GJg-49" style="edgeStyle=orthogonalEdgeStyle;rounded=0;orthogonalLoop=1;jettySize=auto;html=1;" parent="1" source="lSxu0LQNuOqlnwumbdj1-2" target="1KUKAzk6lROxXziW7GJg-33" edge="1">
          <mxGeometry relative="1" as="geometry" />
        </mxCell>
        <mxCell id="1KUKAzk6lROxXziW7GJg-50" style="edgeStyle=orthogonalEdgeStyle;rounded=0;orthogonalLoop=1;jettySize=auto;html=1;" parent="1" source="lSxu0LQNuOqlnwumbdj1-2" target="1KUKAzk6lROxXziW7GJg-38" edge="1">
          <mxGeometry relative="1" as="geometry" />
        </mxCell>
        <mxCell id="1KUKAzk6lROxXziW7GJg-51" style="edgeStyle=orthogonalEdgeStyle;rounded=0;orthogonalLoop=1;jettySize=auto;html=1;" parent="1" source="lSxu0LQNuOqlnwumbdj1-2" target="1KUKAzk6lROxXziW7GJg-43" edge="1">
          <mxGeometry relative="1" as="geometry" />
        </mxCell>
        <mxCell id="1KUKAzk6lROxXziW7GJg-78" style="edgeStyle=orthogonalEdgeStyle;rounded=0;orthogonalLoop=1;jettySize=auto;html=1;" parent="1" source="lSxu0LQNuOqlnwumbdj1-2" target="1KUKAzk6lROxXziW7GJg-74" edge="1">
          <mxGeometry relative="1" as="geometry" />
        </mxCell>
        <mxCell id="lSxu0LQNuOqlnwumbdj1-2" value="" style="html=1;outlineConnect=0;whiteSpace=wrap;fillColor=#b0e3e6;shape=mxgraph.archimate3.application;appType=comp;archiType=square;strokeColor=#0e8088;" parent="1" vertex="1">
          <mxGeometry x="200" y="983" width="1260" height="220" as="geometry" />
        </mxCell>
        <mxCell id="lSxu0LQNuOqlnwumbdj1-3" value="Система управления торговыми площадками" style="text;html=1;align=center;verticalAlign=middle;resizable=0;points=[];autosize=1;strokeColor=none;fillColor=none;" parent="1" vertex="1">
          <mxGeometry x="720" y="983" width="280" height="30" as="geometry" />
        </mxCell>
        <mxCell id="lSxu0LQNuOqlnwumbdj1-4" value="управление профилем" style="html=1;outlineConnect=0;whiteSpace=wrap;fillColor=#99ffff;shape=mxgraph.archimate3.application;appType=comp;archiType=square;" parent="1" vertex="1">
          <mxGeometry x="240" y="1068" width="150" height="75" as="geometry" />
        </mxCell>
        <mxCell id="lSxu0LQNuOqlnwumbdj1-5" value="управление товарами и услугами" style="html=1;outlineConnect=0;whiteSpace=wrap;fillColor=#99ffff;shape=mxgraph.archimate3.application;appType=comp;archiType=square;" parent="1" vertex="1">
          <mxGeometry x="650" y="1068" width="150" height="75" as="geometry" />
        </mxCell>
        <mxCell id="lSxu0LQNuOqlnwumbdj1-6" value="управление аукционами" style="html=1;outlineConnect=0;whiteSpace=wrap;fillColor=#99ffff;shape=mxgraph.archimate3.application;appType=comp;archiType=square;" parent="1" vertex="1">
          <mxGeometry x="1070" y="1068" width="150" height="75" as="geometry" />
        </mxCell>
        <mxCell id="lSxu0LQNuOqlnwumbdj1-7" value="управление заявками" style="html=1;outlineConnect=0;whiteSpace=wrap;fillColor=#99ffff;shape=mxgraph.archimate3.application;appType=comp;archiType=square;" parent="1" vertex="1">
          <mxGeometry x="440" y="1068" width="150" height="75" as="geometry" />
        </mxCell>
        <mxCell id="lSxu0LQNuOqlnwumbdj1-8" value="управление заказами" style="html=1;outlineConnect=0;whiteSpace=wrap;fillColor=#99ffff;shape=mxgraph.archimate3.application;appType=comp;archiType=square;" parent="1" vertex="1">
          <mxGeometry x="860" y="1068" width="150" height="75" as="geometry" />
        </mxCell>
        <mxCell id="lSxu0LQNuOqlnwumbdj1-9" value="управление платежами" style="html=1;outlineConnect=0;whiteSpace=wrap;fillColor=#99ffff;shape=mxgraph.archimate3.application;appType=comp;archiType=square;" parent="1" vertex="1">
          <mxGeometry x="1280" y="1068" width="150" height="75" as="geometry" />
        </mxCell>
        <mxCell id="lgzxn6pv-cpnQKjtm5x5-1" value="" style="align=right;html=1;verticalAlign=bottom;endArrow=none;startArrow=diamondThin;startSize=14;startFill=1;edgeStyle=none;rounded=0;entryX=0.5;entryY=1;entryDx=0;entryDy=0;entryPerimeter=0;exitX=0.5;exitY=0;exitDx=0;exitDy=0;exitPerimeter=0;" parent="1" source="lSxu0LQNuOqlnwumbdj1-4" target="lgzxn6pv-cpnQKjtm5x5-5" edge="1">
          <mxGeometry x="1" relative="1" as="geometry">
            <mxPoint x="280" y="863" as="sourcePoint" />
            <mxPoint x="400" y="738" as="targetPoint" />
            <Array as="points" />
          </mxGeometry>
        </mxCell>
        <mxCell id="lgzxn6pv-cpnQKjtm5x5-2" value="" style="resizable=0;html=1;align=left;verticalAlign=top;labelBackgroundColor=none;fontSize=10" parent="lgzxn6pv-cpnQKjtm5x5-1" connectable="0" vertex="1">
          <mxGeometry x="-1" relative="1" as="geometry" />
        </mxCell>
        <mxCell id="lgzxn6pv-cpnQKjtm5x5-3" value="" style="resizable=0;html=1;align=right;verticalAlign=top;labelBackgroundColor=none;fontSize=10" parent="lgzxn6pv-cpnQKjtm5x5-1" connectable="0" vertex="1">
          <mxGeometry x="1" relative="1" as="geometry" />
        </mxCell>
        <mxCell id="lgzxn6pv-cpnQKjtm5x5-5" value="usr-s-rest-v1" style="html=1;outlineConnect=0;whiteSpace=wrap;fillColor=#99ffff;shape=mxgraph.archimate3.application;appType=interface;archiType=square;" parent="1" vertex="1">
          <mxGeometry x="240" y="873" width="150" height="75" as="geometry" />
        </mxCell>
        <mxCell id="1KUKAzk6lROxXziW7GJg-72" style="edgeStyle=orthogonalEdgeStyle;rounded=0;orthogonalLoop=1;jettySize=auto;html=1;exitX=0.25;exitY=0;exitDx=0;exitDy=0;exitPerimeter=0;entryX=1;entryY=0.75;entryDx=0;entryDy=0;entryPerimeter=0;dashed=1;dashPattern=12 12;" parent="1" source="1KUKAzk6lROxXziW7GJg-1" target="1KUKAzk6lROxXziW7GJg-57" edge="1">
          <mxGeometry relative="1" as="geometry">
            <mxPoint x="850" y="723" as="targetPoint" />
            <Array as="points">
              <mxPoint x="1098" y="719" />
            </Array>
          </mxGeometry>
        </mxCell>
        <mxCell id="1KUKAzk6lROxXziW7GJg-1" value="manageAuc-s-rest-v1" style="html=1;outlineConnect=0;whiteSpace=wrap;fillColor=#99ffff;shape=mxgraph.archimate3.application;appType=interface;archiType=square;" parent="1" vertex="1">
          <mxGeometry x="1070" y="873" width="150" height="75" as="geometry" />
        </mxCell>
        <mxCell id="1KUKAzk6lROxXziW7GJg-2" value="payment-s-rest-v1" style="html=1;outlineConnect=0;whiteSpace=wrap;fillColor=#99ffff;shape=mxgraph.archimate3.application;appType=interface;archiType=square;" parent="1" vertex="1">
          <mxGeometry x="1280" y="873" width="150" height="75" as="geometry" />
        </mxCell>
        <mxCell id="1KUKAzk6lROxXziW7GJg-3" value="manageProduct-s-rest-v1" style="html=1;outlineConnect=0;whiteSpace=wrap;fillColor=#99ffff;shape=mxgraph.archimate3.application;appType=interface;archiType=square;" parent="1" vertex="1">
          <mxGeometry x="860" y="873" width="150" height="75" as="geometry" />
        </mxCell>
        <mxCell id="1KUKAzk6lROxXziW7GJg-4" value="bid-s-rest-v1" style="html=1;outlineConnect=0;whiteSpace=wrap;fillColor=#99ffff;shape=mxgraph.archimate3.application;appType=interface;archiType=square;" parent="1" vertex="1">
          <mxGeometry x="440" y="873" width="150" height="75" as="geometry" />
        </mxCell>
        <mxCell id="1KUKAzk6lROxXziW7GJg-5" value="product-s-rest-v1" style="html=1;outlineConnect=0;whiteSpace=wrap;fillColor=#99ffff;shape=mxgraph.archimate3.application;appType=interface;archiType=square;" parent="1" vertex="1">
          <mxGeometry x="650" y="873" width="150" height="75" as="geometry" />
        </mxCell>
        <mxCell id="1KUKAzk6lROxXziW7GJg-6" value="" style="align=right;html=1;verticalAlign=bottom;endArrow=none;startArrow=diamondThin;startSize=14;startFill=1;edgeStyle=none;rounded=0;entryX=0.5;entryY=1;entryDx=0;entryDy=0;entryPerimeter=0;" parent="1" source="lSxu0LQNuOqlnwumbdj1-7" target="1KUKAzk6lROxXziW7GJg-4" edge="1">
          <mxGeometry x="1" relative="1" as="geometry">
            <mxPoint x="515" y="1073" as="sourcePoint" />
            <mxPoint x="514.79" y="963" as="targetPoint" />
            <Array as="points" />
          </mxGeometry>
        </mxCell>
        <mxCell id="1KUKAzk6lROxXziW7GJg-7" value="" style="resizable=0;html=1;align=left;verticalAlign=top;labelBackgroundColor=none;fontSize=10" parent="1KUKAzk6lROxXziW7GJg-6" connectable="0" vertex="1">
          <mxGeometry x="-1" relative="1" as="geometry" />
        </mxCell>
        <mxCell id="1KUKAzk6lROxXziW7GJg-8" value="" style="resizable=0;html=1;align=right;verticalAlign=top;labelBackgroundColor=none;fontSize=10" parent="1KUKAzk6lROxXziW7GJg-6" connectable="0" vertex="1">
          <mxGeometry x="1" relative="1" as="geometry" />
        </mxCell>
        <mxCell id="1KUKAzk6lROxXziW7GJg-9" value="" style="align=right;html=1;verticalAlign=bottom;endArrow=none;startArrow=diamondThin;startSize=14;startFill=1;edgeStyle=none;rounded=0;entryX=0.5;entryY=1;entryDx=0;entryDy=0;entryPerimeter=0;exitX=0.5;exitY=0;exitDx=0;exitDy=0;exitPerimeter=0;" parent="1" source="lSxu0LQNuOqlnwumbdj1-5" target="1KUKAzk6lROxXziW7GJg-5" edge="1">
          <mxGeometry x="1" relative="1" as="geometry">
            <mxPoint x="720" y="1068" as="sourcePoint" />
            <mxPoint x="720" y="948" as="targetPoint" />
            <Array as="points" />
          </mxGeometry>
        </mxCell>
        <mxCell id="1KUKAzk6lROxXziW7GJg-10" value="" style="resizable=0;html=1;align=left;verticalAlign=top;labelBackgroundColor=none;fontSize=10" parent="1KUKAzk6lROxXziW7GJg-9" connectable="0" vertex="1">
          <mxGeometry x="-1" relative="1" as="geometry" />
        </mxCell>
        <mxCell id="1KUKAzk6lROxXziW7GJg-11" value="" style="resizable=0;html=1;align=right;verticalAlign=top;labelBackgroundColor=none;fontSize=10" parent="1KUKAzk6lROxXziW7GJg-9" connectable="0" vertex="1">
          <mxGeometry x="1" relative="1" as="geometry" />
        </mxCell>
        <mxCell id="1KUKAzk6lROxXziW7GJg-12" value="" style="align=right;html=1;verticalAlign=bottom;endArrow=none;startArrow=diamondThin;startSize=14;startFill=1;edgeStyle=none;rounded=0;entryX=0.5;entryY=1;entryDx=0;entryDy=0;entryPerimeter=0;exitX=0.5;exitY=0;exitDx=0;exitDy=0;exitPerimeter=0;" parent="1" source="lSxu0LQNuOqlnwumbdj1-8" target="1KUKAzk6lROxXziW7GJg-3" edge="1">
          <mxGeometry x="1" relative="1" as="geometry">
            <mxPoint x="934.57" y="1068" as="sourcePoint" />
            <mxPoint x="934.57" y="948" as="targetPoint" />
            <Array as="points" />
          </mxGeometry>
        </mxCell>
        <mxCell id="1KUKAzk6lROxXziW7GJg-13" value="" style="resizable=0;html=1;align=left;verticalAlign=top;labelBackgroundColor=none;fontSize=10" parent="1KUKAzk6lROxXziW7GJg-12" connectable="0" vertex="1">
          <mxGeometry x="-1" relative="1" as="geometry" />
        </mxCell>
        <mxCell id="1KUKAzk6lROxXziW7GJg-14" value="" style="resizable=0;html=1;align=right;verticalAlign=top;labelBackgroundColor=none;fontSize=10" parent="1KUKAzk6lROxXziW7GJg-12" connectable="0" vertex="1">
          <mxGeometry x="1" relative="1" as="geometry" />
        </mxCell>
        <mxCell id="1KUKAzk6lROxXziW7GJg-15" value="" style="align=right;html=1;verticalAlign=bottom;endArrow=none;startArrow=diamondThin;startSize=14;startFill=1;edgeStyle=none;rounded=0;entryX=0.5;entryY=1;entryDx=0;entryDy=0;entryPerimeter=0;exitX=0.5;exitY=0;exitDx=0;exitDy=0;exitPerimeter=0;" parent="1" source="lSxu0LQNuOqlnwumbdj1-9" target="1KUKAzk6lROxXziW7GJg-2" edge="1">
          <mxGeometry x="1" relative="1" as="geometry">
            <mxPoint x="1144.5700000000002" y="1068" as="sourcePoint" />
            <mxPoint x="1144.5700000000002" y="948" as="targetPoint" />
            <Array as="points" />
          </mxGeometry>
        </mxCell>
        <mxCell id="1KUKAzk6lROxXziW7GJg-16" value="" style="resizable=0;html=1;align=left;verticalAlign=top;labelBackgroundColor=none;fontSize=10" parent="1KUKAzk6lROxXziW7GJg-15" connectable="0" vertex="1">
          <mxGeometry x="-1" relative="1" as="geometry" />
        </mxCell>
        <mxCell id="1KUKAzk6lROxXziW7GJg-17" value="" style="resizable=0;html=1;align=right;verticalAlign=top;labelBackgroundColor=none;fontSize=10" parent="1KUKAzk6lROxXziW7GJg-15" connectable="0" vertex="1">
          <mxGeometry x="1" relative="1" as="geometry" />
        </mxCell>
        <mxCell id="1KUKAzk6lROxXziW7GJg-18" value="" style="align=right;html=1;verticalAlign=bottom;endArrow=none;startArrow=diamondThin;startSize=14;startFill=1;edgeStyle=none;rounded=0;entryX=0.5;entryY=1;entryDx=0;entryDy=0;entryPerimeter=0;exitX=0.5;exitY=0;exitDx=0;exitDy=0;exitPerimeter=0;" parent="1" source="lSxu0LQNuOqlnwumbdj1-6" target="1KUKAzk6lROxXziW7GJg-1" edge="1">
          <mxGeometry x="1" relative="1" as="geometry">
            <mxPoint x="1354.5700000000002" y="1068" as="sourcePoint" />
            <mxPoint x="1354.5700000000002" y="948" as="targetPoint" />
            <Array as="points" />
          </mxGeometry>
        </mxCell>
        <mxCell id="1KUKAzk6lROxXziW7GJg-19" value="" style="resizable=0;html=1;align=left;verticalAlign=top;labelBackgroundColor=none;fontSize=10" parent="1KUKAzk6lROxXziW7GJg-18" connectable="0" vertex="1">
          <mxGeometry x="-1" relative="1" as="geometry" />
        </mxCell>
        <mxCell id="1KUKAzk6lROxXziW7GJg-20" value="" style="resizable=0;html=1;align=right;verticalAlign=top;labelBackgroundColor=none;fontSize=10" parent="1KUKAzk6lROxXziW7GJg-18" connectable="0" vertex="1">
          <mxGeometry x="1" relative="1" as="geometry" />
        </mxCell>
        <mxCell id="1KUKAzk6lROxXziW7GJg-22" value="Служебный сервис нотификация" style="html=1;outlineConnect=0;whiteSpace=wrap;fillColor=#99ffff;shape=mxgraph.archimate3.application;appType=comp;archiType=square;" parent="1" vertex="1">
          <mxGeometry x="610" y="1413" width="150" height="75" as="geometry" />
        </mxCell>
        <mxCell id="1KUKAzk6lROxXziW7GJg-23" value="sendMes-a-kafka-v1" style="html=1;outlineConnect=0;whiteSpace=wrap;fillColor=#99ffff;shape=mxgraph.archimate3.application;appType=interface;archiType=square;" parent="1" vertex="1">
          <mxGeometry x="610" y="1293" width="150" height="75" as="geometry" />
        </mxCell>
        <mxCell id="1KUKAzk6lROxXziW7GJg-24" value="" style="align=right;html=1;verticalAlign=bottom;endArrow=none;startArrow=diamondThin;startSize=14;startFill=1;edgeStyle=none;rounded=0;entryX=0.5;entryY=1;entryDx=0;entryDy=0;entryPerimeter=0;" parent="1" source="1KUKAzk6lROxXziW7GJg-22" target="1KUKAzk6lROxXziW7GJg-23" edge="1">
          <mxGeometry x="1" relative="1" as="geometry">
            <mxPoint x="495" y="1498" as="sourcePoint" />
            <mxPoint x="495" y="1378" as="targetPoint" />
            <Array as="points" />
          </mxGeometry>
        </mxCell>
        <mxCell id="1KUKAzk6lROxXziW7GJg-25" value="" style="resizable=0;html=1;align=left;verticalAlign=top;labelBackgroundColor=none;fontSize=10" parent="1KUKAzk6lROxXziW7GJg-24" connectable="0" vertex="1">
          <mxGeometry x="-1" relative="1" as="geometry" />
        </mxCell>
        <mxCell id="1KUKAzk6lROxXziW7GJg-26" value="" style="resizable=0;html=1;align=right;verticalAlign=top;labelBackgroundColor=none;fontSize=10" parent="1KUKAzk6lROxXziW7GJg-24" connectable="0" vertex="1">
          <mxGeometry x="1" relative="1" as="geometry" />
        </mxCell>
        <mxCell id="1KUKAzk6lROxXziW7GJg-27" value="Служебный сервис прикладной и системный мониторинг" style="html=1;outlineConnect=0;whiteSpace=wrap;fillColor=#99ffff;shape=mxgraph.archimate3.application;appType=comp;archiType=square;" parent="1" vertex="1">
          <mxGeometry x="790" y="1413" width="150" height="75" as="geometry" />
        </mxCell>
        <mxCell id="1KUKAzk6lROxXziW7GJg-28" value="prometheus-s-rest-v1" style="html=1;outlineConnect=0;whiteSpace=wrap;fillColor=#99ffff;shape=mxgraph.archimate3.application;appType=interface;archiType=square;" parent="1" vertex="1">
          <mxGeometry x="790" y="1293" width="150" height="75" as="geometry" />
        </mxCell>
        <mxCell id="1KUKAzk6lROxXziW7GJg-29" value="" style="align=right;html=1;verticalAlign=bottom;endArrow=none;startArrow=diamondThin;startSize=14;startFill=1;edgeStyle=none;rounded=0;entryX=0.5;entryY=1;entryDx=0;entryDy=0;entryPerimeter=0;" parent="1" source="1KUKAzk6lROxXziW7GJg-27" target="1KUKAzk6lROxXziW7GJg-28" edge="1">
          <mxGeometry x="1" relative="1" as="geometry">
            <mxPoint x="675" y="1498" as="sourcePoint" />
            <mxPoint x="675" y="1378" as="targetPoint" />
            <Array as="points" />
          </mxGeometry>
        </mxCell>
        <mxCell id="1KUKAzk6lROxXziW7GJg-30" value="" style="resizable=0;html=1;align=left;verticalAlign=top;labelBackgroundColor=none;fontSize=10" parent="1KUKAzk6lROxXziW7GJg-29" connectable="0" vertex="1">
          <mxGeometry x="-1" relative="1" as="geometry" />
        </mxCell>
        <mxCell id="1KUKAzk6lROxXziW7GJg-31" value="" style="resizable=0;html=1;align=right;verticalAlign=top;labelBackgroundColor=none;fontSize=10" parent="1KUKAzk6lROxXziW7GJg-29" connectable="0" vertex="1">
          <mxGeometry x="1" relative="1" as="geometry" />
        </mxCell>
        <mxCell id="1KUKAzk6lROxXziW7GJg-32" value="Служебный сервис Журналирование" style="html=1;outlineConnect=0;whiteSpace=wrap;fillColor=#99ffff;shape=mxgraph.archimate3.application;appType=comp;archiType=square;" parent="1" vertex="1">
          <mxGeometry x="960" y="1413" width="150" height="75" as="geometry" />
        </mxCell>
        <mxCell id="1KUKAzk6lROxXziW7GJg-33" value="log-a-kafka-v1" style="html=1;outlineConnect=0;whiteSpace=wrap;fillColor=#99ffff;shape=mxgraph.archimate3.application;appType=interface;archiType=square;" parent="1" vertex="1">
          <mxGeometry x="960" y="1293" width="150" height="75" as="geometry" />
        </mxCell>
        <mxCell id="1KUKAzk6lROxXziW7GJg-34" value="" style="align=right;html=1;verticalAlign=bottom;endArrow=none;startArrow=diamondThin;startSize=14;startFill=1;edgeStyle=none;rounded=0;entryX=0.5;entryY=1;entryDx=0;entryDy=0;entryPerimeter=0;" parent="1" source="1KUKAzk6lROxXziW7GJg-32" target="1KUKAzk6lROxXziW7GJg-33" edge="1">
          <mxGeometry x="1" relative="1" as="geometry">
            <mxPoint x="845" y="1498" as="sourcePoint" />
            <mxPoint x="845" y="1378" as="targetPoint" />
            <Array as="points" />
          </mxGeometry>
        </mxCell>
        <mxCell id="1KUKAzk6lROxXziW7GJg-35" value="" style="resizable=0;html=1;align=left;verticalAlign=top;labelBackgroundColor=none;fontSize=10" parent="1KUKAzk6lROxXziW7GJg-34" connectable="0" vertex="1">
          <mxGeometry x="-1" relative="1" as="geometry" />
        </mxCell>
        <mxCell id="1KUKAzk6lROxXziW7GJg-36" value="" style="resizable=0;html=1;align=right;verticalAlign=top;labelBackgroundColor=none;fontSize=10" parent="1KUKAzk6lROxXziW7GJg-34" connectable="0" vertex="1">
          <mxGeometry x="1" relative="1" as="geometry" />
        </mxCell>
        <mxCell id="1KUKAzk6lROxXziW7GJg-37" value="Служебный сервис&lt;div&gt;&amp;nbsp;аудит&lt;/div&gt;" style="html=1;outlineConnect=0;whiteSpace=wrap;fillColor=#99ffff;shape=mxgraph.archimate3.application;appType=comp;archiType=square;" parent="1" vertex="1">
          <mxGeometry x="1130" y="1413" width="150" height="75" as="geometry" />
        </mxCell>
        <mxCell id="1KUKAzk6lROxXziW7GJg-38" value="audit-s-kafka-v1" style="html=1;outlineConnect=0;whiteSpace=wrap;fillColor=#99ffff;shape=mxgraph.archimate3.application;appType=interface;archiType=square;" parent="1" vertex="1">
          <mxGeometry x="1130" y="1293" width="150" height="75" as="geometry" />
        </mxCell>
        <mxCell id="1KUKAzk6lROxXziW7GJg-39" value="" style="align=right;html=1;verticalAlign=bottom;endArrow=none;startArrow=diamondThin;startSize=14;startFill=1;edgeStyle=none;rounded=0;entryX=0.5;entryY=1;entryDx=0;entryDy=0;entryPerimeter=0;" parent="1" source="1KUKAzk6lROxXziW7GJg-37" target="1KUKAzk6lROxXziW7GJg-38" edge="1">
          <mxGeometry x="1" relative="1" as="geometry">
            <mxPoint x="1015" y="1498" as="sourcePoint" />
            <mxPoint x="1015" y="1378" as="targetPoint" />
            <Array as="points" />
          </mxGeometry>
        </mxCell>
        <mxCell id="1KUKAzk6lROxXziW7GJg-40" value="" style="resizable=0;html=1;align=left;verticalAlign=top;labelBackgroundColor=none;fontSize=10" parent="1KUKAzk6lROxXziW7GJg-39" connectable="0" vertex="1">
          <mxGeometry x="-1" relative="1" as="geometry" />
        </mxCell>
        <mxCell id="1KUKAzk6lROxXziW7GJg-41" value="" style="resizable=0;html=1;align=right;verticalAlign=top;labelBackgroundColor=none;fontSize=10" parent="1KUKAzk6lROxXziW7GJg-39" connectable="0" vertex="1">
          <mxGeometry x="1" relative="1" as="geometry" />
        </mxCell>
        <mxCell id="1KUKAzk6lROxXziW7GJg-42" value="Служебный сервис трассировка" style="html=1;outlineConnect=0;whiteSpace=wrap;fillColor=#99ffff;shape=mxgraph.archimate3.application;appType=comp;archiType=square;" parent="1" vertex="1">
          <mxGeometry x="1300" y="1413" width="150" height="75" as="geometry" />
        </mxCell>
        <mxCell id="1KUKAzk6lROxXziW7GJg-43" value="jaeger-s-rest-v1" style="html=1;outlineConnect=0;whiteSpace=wrap;fillColor=#99ffff;shape=mxgraph.archimate3.application;appType=interface;archiType=square;" parent="1" vertex="1">
          <mxGeometry x="1300" y="1293" width="150" height="75" as="geometry" />
        </mxCell>
        <mxCell id="1KUKAzk6lROxXziW7GJg-44" value="" style="align=right;html=1;verticalAlign=bottom;endArrow=none;startArrow=diamondThin;startSize=14;startFill=1;edgeStyle=none;rounded=0;entryX=0.5;entryY=1;entryDx=0;entryDy=0;entryPerimeter=0;" parent="1" source="1KUKAzk6lROxXziW7GJg-42" target="1KUKAzk6lROxXziW7GJg-43" edge="1">
          <mxGeometry x="1" relative="1" as="geometry">
            <mxPoint x="1185" y="1498" as="sourcePoint" />
            <mxPoint x="1185" y="1378" as="targetPoint" />
            <Array as="points" />
          </mxGeometry>
        </mxCell>
        <mxCell id="1KUKAzk6lROxXziW7GJg-45" value="" style="resizable=0;html=1;align=left;verticalAlign=top;labelBackgroundColor=none;fontSize=10" parent="1KUKAzk6lROxXziW7GJg-44" connectable="0" vertex="1">
          <mxGeometry x="-1" relative="1" as="geometry" />
        </mxCell>
        <mxCell id="1KUKAzk6lROxXziW7GJg-46" value="" style="resizable=0;html=1;align=right;verticalAlign=top;labelBackgroundColor=none;fontSize=10" parent="1KUKAzk6lROxXziW7GJg-44" connectable="0" vertex="1">
          <mxGeometry x="1" relative="1" as="geometry" />
        </mxCell>
        <mxCell id="1KUKAzk6lROxXziW7GJg-48" style="edgeStyle=orthogonalEdgeStyle;rounded=0;orthogonalLoop=1;jettySize=auto;html=1;entryX=0.5;entryY=0;entryDx=0;entryDy=0;entryPerimeter=0;" parent="1" source="lSxu0LQNuOqlnwumbdj1-2" target="1KUKAzk6lROxXziW7GJg-28" edge="1">
          <mxGeometry relative="1" as="geometry" />
        </mxCell>
        <mxCell id="1KUKAzk6lROxXziW7GJg-60" style="edgeStyle=orthogonalEdgeStyle;rounded=0;orthogonalLoop=1;jettySize=auto;html=1;" parent="1" source="1KUKAzk6lROxXziW7GJg-57" target="1KUKAzk6lROxXziW7GJg-4" edge="1">
          <mxGeometry relative="1" as="geometry" />
        </mxCell>
        <mxCell id="1KUKAzk6lROxXziW7GJg-63" style="edgeStyle=orthogonalEdgeStyle;rounded=0;orthogonalLoop=1;jettySize=auto;html=1;" parent="1" source="1KUKAzk6lROxXziW7GJg-57" target="1KUKAzk6lROxXziW7GJg-3" edge="1">
          <mxGeometry relative="1" as="geometry" />
        </mxCell>
        <mxCell id="1KUKAzk6lROxXziW7GJg-65" style="edgeStyle=orthogonalEdgeStyle;rounded=0;orthogonalLoop=1;jettySize=auto;html=1;" parent="1" source="1KUKAzk6lROxXziW7GJg-57" target="1KUKAzk6lROxXziW7GJg-1" edge="1">
          <mxGeometry relative="1" as="geometry" />
        </mxCell>
        <mxCell id="1KUKAzk6lROxXziW7GJg-57" value="Сервис оркестратор" style="html=1;outlineConnect=0;whiteSpace=wrap;fillColor=#99ffff;shape=mxgraph.archimate3.application;appType=comp;archiType=square;" parent="1" vertex="1">
          <mxGeometry x="688" y="663" width="150" height="75" as="geometry" />
        </mxCell>
        <mxCell id="1KUKAzk6lROxXziW7GJg-59" style="edgeStyle=orthogonalEdgeStyle;rounded=0;orthogonalLoop=1;jettySize=auto;html=1;entryX=0.5;entryY=0;entryDx=0;entryDy=0;entryPerimeter=0;exitX=0;exitY=0.5;exitDx=0;exitDy=0;exitPerimeter=0;" parent="1" source="1KUKAzk6lROxXziW7GJg-125" target="lgzxn6pv-cpnQKjtm5x5-5" edge="1">
          <mxGeometry relative="1" as="geometry" />
        </mxCell>
        <mxCell id="1KUKAzk6lROxXziW7GJg-62" style="edgeStyle=orthogonalEdgeStyle;rounded=0;orthogonalLoop=1;jettySize=auto;html=1;entryX=0.5;entryY=0;entryDx=0;entryDy=0;entryPerimeter=0;exitX=0.25;exitY=1;exitDx=0;exitDy=0;exitPerimeter=0;" parent="1" source="1KUKAzk6lROxXziW7GJg-57" target="1KUKAzk6lROxXziW7GJg-5" edge="1">
          <mxGeometry relative="1" as="geometry" />
        </mxCell>
        <mxCell id="1KUKAzk6lROxXziW7GJg-64" style="edgeStyle=orthogonalEdgeStyle;rounded=0;orthogonalLoop=1;jettySize=auto;html=1;entryX=0.5;entryY=0;entryDx=0;entryDy=0;entryPerimeter=0;" parent="1" source="1KUKAzk6lROxXziW7GJg-57" target="1KUKAzk6lROxXziW7GJg-2" edge="1">
          <mxGeometry relative="1" as="geometry" />
        </mxCell>
        <mxCell id="1KUKAzk6lROxXziW7GJg-66" value="LAN" style="text;html=1;align=center;verticalAlign=middle;whiteSpace=wrap;rounded=1;shadow=0;fontSize=23;fontStyle=1" parent="1" vertex="1">
          <mxGeometry x="90" y="633" width="85" height="49" as="geometry" />
        </mxCell>
        <mxCell id="1KUKAzk6lROxXziW7GJg-67" style="edgeStyle=orthogonalEdgeStyle;rounded=0;orthogonalLoop=1;jettySize=auto;html=1;entryX=0;entryY=0.75;entryDx=0;entryDy=0;entryPerimeter=0;exitX=0.75;exitY=0;exitDx=0;exitDy=0;exitPerimeter=0;dashed=1;dashPattern=12 12;" parent="1" source="lgzxn6pv-cpnQKjtm5x5-5" target="1KUKAzk6lROxXziW7GJg-125" edge="1">
          <mxGeometry relative="1" as="geometry" />
        </mxCell>
        <mxCell id="1KUKAzk6lROxXziW7GJg-68" style="edgeStyle=orthogonalEdgeStyle;rounded=0;orthogonalLoop=1;jettySize=auto;html=1;entryX=0;entryY=0.75;entryDx=0;entryDy=0;entryPerimeter=0;exitX=0.75;exitY=0;exitDx=0;exitDy=0;exitPerimeter=0;dashed=1;dashPattern=12 12;" parent="1" source="1KUKAzk6lROxXziW7GJg-4" target="1KUKAzk6lROxXziW7GJg-57" edge="1">
          <mxGeometry relative="1" as="geometry" />
        </mxCell>
        <mxCell id="1KUKAzk6lROxXziW7GJg-69" style="edgeStyle=orthogonalEdgeStyle;rounded=0;orthogonalLoop=1;jettySize=auto;html=1;exitX=0.75;exitY=0;exitDx=0;exitDy=0;exitPerimeter=0;dashed=1;dashPattern=12 12;" parent="1" source="1KUKAzk6lROxXziW7GJg-5" target="1KUKAzk6lROxXziW7GJg-57" edge="1">
          <mxGeometry relative="1" as="geometry" />
        </mxCell>
        <mxCell id="1KUKAzk6lROxXziW7GJg-70" style="edgeStyle=orthogonalEdgeStyle;rounded=0;orthogonalLoop=1;jettySize=auto;html=1;entryX=1;entryY=0.75;entryDx=0;entryDy=0;entryPerimeter=0;exitX=0.25;exitY=0;exitDx=0;exitDy=0;exitPerimeter=0;dashed=1;dashPattern=12 12;" parent="1" source="1KUKAzk6lROxXziW7GJg-3" target="1KUKAzk6lROxXziW7GJg-57" edge="1">
          <mxGeometry relative="1" as="geometry" />
        </mxCell>
        <mxCell id="1KUKAzk6lROxXziW7GJg-71" style="edgeStyle=orthogonalEdgeStyle;rounded=0;orthogonalLoop=1;jettySize=auto;html=1;entryX=1;entryY=0.75;entryDx=0;entryDy=0;entryPerimeter=0;exitX=0.25;exitY=0;exitDx=0;exitDy=0;exitPerimeter=0;dashed=1;dashPattern=12 12;" parent="1" source="1KUKAzk6lROxXziW7GJg-2" target="1KUKAzk6lROxXziW7GJg-57" edge="1">
          <mxGeometry relative="1" as="geometry" />
        </mxCell>
        <mxCell id="1KUKAzk6lROxXziW7GJg-73" value="Служебный сервис консоль администратора" style="html=1;outlineConnect=0;whiteSpace=wrap;fillColor=#99ffff;shape=mxgraph.archimate3.application;appType=comp;archiType=square;" parent="1" vertex="1">
          <mxGeometry x="430" y="1413" width="150" height="75" as="geometry" />
        </mxCell>
        <mxCell id="1KUKAzk6lROxXziW7GJg-74" value="UI консоли" style="html=1;outlineConnect=0;whiteSpace=wrap;fillColor=#99ffff;shape=mxgraph.archimate3.application;appType=interface;archiType=square;" parent="1" vertex="1">
          <mxGeometry x="430" y="1293" width="150" height="75" as="geometry" />
        </mxCell>
        <mxCell id="1KUKAzk6lROxXziW7GJg-75" value="" style="align=right;html=1;verticalAlign=bottom;endArrow=none;startArrow=diamondThin;startSize=14;startFill=1;edgeStyle=none;rounded=0;entryX=0.5;entryY=1;entryDx=0;entryDy=0;entryPerimeter=0;exitX=0.5;exitY=0;exitDx=0;exitDy=0;exitPerimeter=0;" parent="1" source="1KUKAzk6lROxXziW7GJg-73" target="1KUKAzk6lROxXziW7GJg-74" edge="1">
          <mxGeometry x="1" relative="1" as="geometry">
            <mxPoint x="695" y="1423" as="sourcePoint" />
            <mxPoint x="695" y="1378" as="targetPoint" />
            <Array as="points" />
          </mxGeometry>
        </mxCell>
        <mxCell id="1KUKAzk6lROxXziW7GJg-76" value="" style="resizable=0;html=1;align=left;verticalAlign=top;labelBackgroundColor=none;fontSize=10" parent="1KUKAzk6lROxXziW7GJg-75" connectable="0" vertex="1">
          <mxGeometry x="-1" relative="1" as="geometry" />
        </mxCell>
        <mxCell id="1KUKAzk6lROxXziW7GJg-77" value="" style="resizable=0;html=1;align=right;verticalAlign=top;labelBackgroundColor=none;fontSize=10" parent="1KUKAzk6lROxXziW7GJg-75" connectable="0" vertex="1">
          <mxGeometry x="1" relative="1" as="geometry" />
        </mxCell>
        <mxCell id="1KUKAzk6lROxXziW7GJg-80" value="ext-payment-s-rest-v1" style="html=1;outlineConnect=0;whiteSpace=wrap;fillColor=#99ffff;shape=mxgraph.archimate3.application;appType=interface;archiType=square;" parent="1" vertex="1">
          <mxGeometry x="1709" y="863" width="150" height="75" as="geometry" />
        </mxCell>
        <mxCell id="1KUKAzk6lROxXziW7GJg-81" value="" style="align=right;html=1;verticalAlign=bottom;endArrow=none;startArrow=diamondThin;startSize=14;startFill=1;edgeStyle=none;rounded=0;entryX=0.5;entryY=1;entryDx=0;entryDy=0;entryPerimeter=0;exitX=1;exitY=0.5;exitDx=0;exitDy=0;exitPerimeter=0;" parent="1" source="lSxu0LQNuOqlnwumbdj1-9" target="1KUKAzk6lROxXziW7GJg-80" edge="1">
          <mxGeometry x="1" relative="1" as="geometry">
            <mxPoint x="1365" y="1078" as="sourcePoint" />
            <mxPoint x="1365" y="958" as="targetPoint" />
            <Array as="points">
              <mxPoint x="1635" y="1106" />
              <mxPoint x="1784" y="1110" />
            </Array>
          </mxGeometry>
        </mxCell>
        <mxCell id="1KUKAzk6lROxXziW7GJg-82" value="" style="resizable=0;html=1;align=left;verticalAlign=top;labelBackgroundColor=none;fontSize=10" parent="1KUKAzk6lROxXziW7GJg-81" connectable="0" vertex="1">
          <mxGeometry x="-1" relative="1" as="geometry" />
        </mxCell>
        <mxCell id="1KUKAzk6lROxXziW7GJg-83" value="" style="resizable=0;html=1;align=right;verticalAlign=top;labelBackgroundColor=none;fontSize=10" parent="1KUKAzk6lROxXziW7GJg-81" connectable="0" vertex="1">
          <mxGeometry x="1" relative="1" as="geometry" />
        </mxCell>
        <mxCell id="1KUKAzk6lROxXziW7GJg-85" value="Единая точка входа и управление внутренними API" style="text;whiteSpace=wrap;html=1;fontStyle=1" parent="1" vertex="1">
          <mxGeometry x="671.25" y="833" width="317.5" height="40" as="geometry" />
        </mxCell>
        <mxCell id="1KUKAzk6lROxXziW7GJg-86" value="Управление внешними API" style="text;whiteSpace=wrap;html=1;fontStyle=1" parent="1" vertex="1">
          <mxGeometry x="1699" y="823" width="190.5" height="30" as="geometry" />
        </mxCell>
        <mxCell id="1KUKAzk6lROxXziW7GJg-87" value="Portal UI" style="html=1;outlineConnect=0;whiteSpace=wrap;fillColor=#99ffff;shape=mxgraph.archimate3.application;appType=interface;archiType=square;" parent="1" vertex="1">
          <mxGeometry x="688" y="350" width="150" height="75" as="geometry" />
        </mxCell>
        <mxCell id="1KUKAzk6lROxXziW7GJg-88" style="edgeStyle=orthogonalEdgeStyle;rounded=0;orthogonalLoop=1;jettySize=auto;html=1;entryX=0.5;entryY=0;entryDx=0;entryDy=0;entryPerimeter=0;" parent="1" source="1KUKAzk6lROxXziW7GJg-125" target="1KUKAzk6lROxXziW7GJg-57" edge="1">
          <mxGeometry relative="1" as="geometry" />
        </mxCell>
        <mxCell id="1KUKAzk6lROxXziW7GJg-93" style="edgeStyle=orthogonalEdgeStyle;rounded=0;orthogonalLoop=1;jettySize=auto;html=1;" parent="1" source="1KUKAzk6lROxXziW7GJg-89" target="1KUKAzk6lROxXziW7GJg-80" edge="1">
          <mxGeometry relative="1" as="geometry" />
        </mxCell>
        <mxCell id="1KUKAzk6lROxXziW7GJg-89" value="Яндекс.Pay" style="html=1;outlineConnect=0;whiteSpace=wrap;fillColor=#bac8d3;shape=mxgraph.archimate3.application;appType=comp;archiType=square;strokeColor=#23445d;" parent="1" vertex="1">
          <mxGeometry x="1560" y="310" width="150" height="75" as="geometry" />
        </mxCell>
        <mxCell id="1KUKAzk6lROxXziW7GJg-91" value="Внешние партнеры" style="text;html=1;align=center;verticalAlign=middle;resizable=0;points=[];autosize=1;strokeColor=none;fillColor=none;" parent="1" vertex="1">
          <mxGeometry x="1560" y="240" width="130" height="30" as="geometry" />
        </mxCell>
        <mxCell id="1KUKAzk6lROxXziW7GJg-94" style="edgeStyle=orthogonalEdgeStyle;rounded=0;orthogonalLoop=1;jettySize=auto;html=1;entryX=0.75;entryY=1;entryDx=0;entryDy=0;entryPerimeter=0;exitX=0.75;exitY=0;exitDx=0;exitDy=0;exitPerimeter=0;dashed=1;dashPattern=8 8;" parent="1" source="1KUKAzk6lROxXziW7GJg-80" target="1KUKAzk6lROxXziW7GJg-89" edge="1">
          <mxGeometry relative="1" as="geometry">
            <Array as="points">
              <mxPoint x="1822" y="600" />
              <mxPoint x="1672" y="600" />
            </Array>
          </mxGeometry>
        </mxCell>
        <mxCell id="1KUKAzk6lROxXziW7GJg-96" value="WAN" style="text;html=1;align=center;verticalAlign=middle;whiteSpace=wrap;rounded=1;shadow=0;fontSize=23;fontStyle=1" parent="1" vertex="1">
          <mxGeometry x="90" y="180" width="85" height="49" as="geometry" />
        </mxCell>
        <mxCell id="1KUKAzk6lROxXziW7GJg-98" style="edgeStyle=orthogonalEdgeStyle;rounded=0;orthogonalLoop=1;jettySize=auto;html=1;dashed=1;" parent="1" source="1KUKAzk6lROxXziW7GJg-97" target="1KUKAzk6lROxXziW7GJg-87" edge="1">
          <mxGeometry relative="1" as="geometry" />
        </mxCell>
        <mxCell id="1KUKAzk6lROxXziW7GJg-97" value="Клиент" style="shape=umlActor;verticalLabelPosition=bottom;verticalAlign=top;html=1;outlineConnect=0;rounded=1;" parent="1" vertex="1">
          <mxGeometry x="550" y="190" width="70" height="141" as="geometry" />
        </mxCell>
        <mxCell id="1KUKAzk6lROxXziW7GJg-102" style="edgeStyle=orthogonalEdgeStyle;rounded=0;orthogonalLoop=1;jettySize=auto;html=1;" parent="1" source="1KUKAzk6lROxXziW7GJg-99" target="1KUKAzk6lROxXziW7GJg-74" edge="1">
          <mxGeometry relative="1" as="geometry" />
        </mxCell>
        <mxCell id="1KUKAzk6lROxXziW7GJg-99" value="Администратор" style="shape=umlActor;verticalLabelPosition=bottom;verticalAlign=top;html=1;outlineConnect=0;rounded=1;" parent="1" vertex="1">
          <mxGeometry x="120" y="1213" width="65" height="141" as="geometry" />
        </mxCell>
        <mxCell id="1KUKAzk6lROxXziW7GJg-103" style="edgeStyle=orthogonalEdgeStyle;rounded=0;orthogonalLoop=1;jettySize=auto;html=1;" parent="1" source="1KUKAzk6lROxXziW7GJg-100" target="1KUKAzk6lROxXziW7GJg-74" edge="1">
          <mxGeometry relative="1" as="geometry" />
        </mxCell>
        <mxCell id="1KUKAzk6lROxXziW7GJg-100" value="Специалист поддержки" style="shape=umlActor;verticalLabelPosition=bottom;verticalAlign=top;html=1;outlineConnect=0;rounded=1;" parent="1" vertex="1">
          <mxGeometry x="240" y="1347" width="65" height="141" as="geometry" />
        </mxCell>
        <mxCell id="1KUKAzk6lROxXziW7GJg-104" value="Легенда" style="text;html=1;align=center;verticalAlign=middle;resizable=0;points=[];autosize=1;strokeColor=none;fillColor=none;" parent="1" vertex="1">
          <mxGeometry x="105" y="1571" width="70" height="30" as="geometry" />
        </mxCell>
        <mxCell id="1KUKAzk6lROxXziW7GJg-105" value="" style="html=1;outlineConnect=0;whiteSpace=wrap;fillColor=#99ffff;shape=mxgraph.archimate3.application;appType=comp;archiType=square;" parent="1" vertex="1">
          <mxGeometry x="120" y="1613" width="50" height="30" as="geometry" />
        </mxCell>
        <mxCell id="1KUKAzk6lROxXziW7GJg-106" value="" style="html=1;outlineConnect=0;whiteSpace=wrap;fillColor=#b0e3e6;shape=mxgraph.archimate3.application;appType=comp;archiType=square;strokeColor=#0e8088;" parent="1" vertex="1">
          <mxGeometry x="120" y="1663" width="50" height="30" as="geometry" />
        </mxCell>
        <mxCell id="1KUKAzk6lROxXziW7GJg-107" value="" style="html=1;outlineConnect=0;whiteSpace=wrap;fillColor=#bac8d3;shape=mxgraph.archimate3.application;appType=comp;archiType=square;strokeColor=#23445d;" parent="1" vertex="1">
          <mxGeometry x="120" y="1713" width="50" height="30" as="geometry" />
        </mxCell>
        <mxCell id="1KUKAzk6lROxXziW7GJg-108" value="- сервис" style="text;html=1;align=center;verticalAlign=middle;resizable=0;points=[];autosize=1;strokeColor=none;fillColor=none;" parent="1" vertex="1">
          <mxGeometry x="175" y="1613" width="70" height="30" as="geometry" />
        </mxCell>
        <mxCell id="1KUKAzk6lROxXziW7GJg-110" value="- система" style="text;html=1;align=center;verticalAlign=middle;resizable=0;points=[];autosize=1;strokeColor=none;fillColor=none;" parent="1" vertex="1">
          <mxGeometry x="170" y="1663" width="80" height="30" as="geometry" />
        </mxCell>
        <mxCell id="1KUKAzk6lROxXziW7GJg-111" value="- внешняя система" style="text;html=1;align=center;verticalAlign=middle;resizable=0;points=[];autosize=1;strokeColor=none;fillColor=none;" parent="1" vertex="1">
          <mxGeometry x="170" y="1713" width="130" height="30" as="geometry" />
        </mxCell>
        <mxCell id="1KUKAzk6lROxXziW7GJg-112" value="" style="align=right;html=1;verticalAlign=bottom;endArrow=none;startArrow=diamondThin;startSize=14;startFill=1;edgeStyle=none;rounded=0;" parent="1" edge="1">
          <mxGeometry x="1" relative="1" as="geometry">
            <mxPoint x="320" y="1623" as="sourcePoint" />
            <mxPoint x="440" y="1623" as="targetPoint" />
            <Array as="points" />
          </mxGeometry>
        </mxCell>
        <mxCell id="1KUKAzk6lROxXziW7GJg-113" value="" style="resizable=0;html=1;align=left;verticalAlign=top;labelBackgroundColor=none;fontSize=10" parent="1KUKAzk6lROxXziW7GJg-112" connectable="0" vertex="1">
          <mxGeometry x="-1" relative="1" as="geometry" />
        </mxCell>
        <mxCell id="1KUKAzk6lROxXziW7GJg-114" value="" style="resizable=0;html=1;align=right;verticalAlign=top;labelBackgroundColor=none;fontSize=10" parent="1KUKAzk6lROxXziW7GJg-112" connectable="0" vertex="1">
          <mxGeometry x="1" relative="1" as="geometry" />
        </mxCell>
        <mxCell id="1KUKAzk6lROxXziW7GJg-115" style="edgeStyle=orthogonalEdgeStyle;rounded=0;orthogonalLoop=1;jettySize=auto;html=1;" parent="1" edge="1">
          <mxGeometry relative="1" as="geometry">
            <mxPoint x="320" y="1673" as="sourcePoint" />
            <mxPoint x="440" y="1673" as="targetPoint" />
          </mxGeometry>
        </mxCell>
        <mxCell id="1KUKAzk6lROxXziW7GJg-117" style="edgeStyle=orthogonalEdgeStyle;rounded=0;orthogonalLoop=1;jettySize=auto;html=1;dashed=1;dashPattern=12 12;" parent="1" edge="1">
          <mxGeometry relative="1" as="geometry">
            <mxPoint x="320" y="1723" as="sourcePoint" />
            <mxPoint x="440" y="1723" as="targetPoint" />
          </mxGeometry>
        </mxCell>
        <mxCell id="1KUKAzk6lROxXziW7GJg-118" value="- инициирование(поток команд)" style="text;html=1;align=center;verticalAlign=middle;resizable=0;points=[];autosize=1;strokeColor=none;fillColor=none;" parent="1" vertex="1">
          <mxGeometry x="440" y="1653" width="200" height="30" as="geometry" />
        </mxCell>
        <mxCell id="1KUKAzk6lROxXziW7GJg-119" value="- компоновка (состоит из)" style="text;html=1;align=center;verticalAlign=middle;resizable=0;points=[];autosize=1;strokeColor=none;fillColor=none;" parent="1" vertex="1">
          <mxGeometry x="440" y="1601" width="170" height="30" as="geometry" />
        </mxCell>
        <mxCell id="1KUKAzk6lROxXziW7GJg-120" value="- поток(поток данных)" style="text;html=1;align=center;verticalAlign=middle;resizable=0;points=[];autosize=1;strokeColor=none;fillColor=none;" parent="1" vertex="1">
          <mxGeometry x="440" y="1703" width="140" height="30" as="geometry" />
        </mxCell>
        <mxCell id="1KUKAzk6lROxXziW7GJg-123" value="" style="html=1;outlineConnect=0;whiteSpace=wrap;fillColor=#AFFFAF;shape=mxgraph.archimate3.application;appType=node;archiType=square;" parent="1" vertex="1">
          <mxGeometry x="120" y="1763" width="60" height="40" as="geometry" />
        </mxCell>
        <mxCell id="1KUKAzk6lROxXziW7GJg-124" value="- интеграционная платформа" style="text;html=1;align=center;verticalAlign=middle;resizable=0;points=[];autosize=1;strokeColor=none;fillColor=none;" parent="1" vertex="1">
          <mxGeometry x="180" y="1761" width="190" height="30" as="geometry" />
        </mxCell>
        <mxCell id="1KUKAzk6lROxXziW7GJg-126" value="" style="edgeStyle=orthogonalEdgeStyle;rounded=0;orthogonalLoop=1;jettySize=auto;html=1;entryX=0.5;entryY=0;entryDx=0;entryDy=0;entryPerimeter=0;" parent="1" source="1KUKAzk6lROxXziW7GJg-87" target="1KUKAzk6lROxXziW7GJg-125" edge="1">
          <mxGeometry relative="1" as="geometry">
            <mxPoint x="763" y="425" as="sourcePoint" />
            <mxPoint x="763" y="663" as="targetPoint" />
          </mxGeometry>
        </mxCell>
        <mxCell id="1KUKAzk6lROxXziW7GJg-125" value="Портал электронной площадка&amp;nbsp;" style="html=1;outlineConnect=0;whiteSpace=wrap;fillColor=#99ffff;shape=mxgraph.archimate3.application;appType=comp;archiType=square;" parent="1" vertex="1">
          <mxGeometry x="688" y="490" width="150" height="75" as="geometry" />
        </mxCell>
        <mxCell id="1KUKAzk6lROxXziW7GJg-127" value="arkSer-s-rest-v1" style="html=1;outlineConnect=0;whiteSpace=wrap;fillColor=#99ffff;shape=mxgraph.archimate3.application;appType=interface;archiType=square;" parent="1" vertex="1">
          <mxGeometry x="1450" y="873" width="150" height="75" as="geometry" />
        </mxCell>
        <mxCell id="1KUKAzk6lROxXziW7GJg-129" value="Система управления торговыми площадками" style="text;html=1;align=center;verticalAlign=middle;resizable=0;points=[];autosize=1;strokeColor=none;fillColor=none;" parent="1" vertex="1">
          <mxGeometry x="620" y="603" width="280" height="30" as="geometry" />
        </mxCell>
        <mxCell id="1KUKAzk6lROxXziW7GJg-130" value="" style="align=right;html=1;verticalAlign=bottom;endArrow=none;startArrow=diamondThin;startSize=14;startFill=1;edgeStyle=none;rounded=0;entryX=0.5;entryY=0;entryDx=0;entryDy=0;entryPerimeter=0;exitX=1;exitY=0.25;exitDx=0;exitDy=0;exitPerimeter=0;" parent="1" source="1KUKAzk6lROxXziW7GJg-57" target="1KUKAzk6lROxXziW7GJg-127" edge="1">
          <mxGeometry x="1" relative="1" as="geometry">
            <mxPoint x="325" y="1078" as="sourcePoint" />
            <mxPoint x="325" y="958" as="targetPoint" />
            <Array as="points">
              <mxPoint x="1525" y="682" />
            </Array>
          </mxGeometry>
        </mxCell>
        <mxCell id="1KUKAzk6lROxXziW7GJg-131" value="" style="resizable=0;html=1;align=left;verticalAlign=top;labelBackgroundColor=none;fontSize=10" parent="1KUKAzk6lROxXziW7GJg-130" connectable="0" vertex="1">
          <mxGeometry x="-1" relative="1" as="geometry" />
        </mxCell>
        <mxCell id="1KUKAzk6lROxXziW7GJg-132" value="" style="resizable=0;html=1;align=right;verticalAlign=top;labelBackgroundColor=none;fontSize=10" parent="1KUKAzk6lROxXziW7GJg-130" connectable="0" vertex="1">
          <mxGeometry x="1" relative="1" as="geometry" />
        </mxCell>
        <mxCell id="1KUKAzk6lROxXziW7GJg-133" style="edgeStyle=orthogonalEdgeStyle;rounded=0;orthogonalLoop=1;jettySize=auto;html=1;entryX=0.75;entryY=0;entryDx=0;entryDy=0;entryPerimeter=0;exitX=1;exitY=0.5;exitDx=0;exitDy=0;exitPerimeter=0;" parent="1" source="1KUKAzk6lROxXziW7GJg-125" target="1KUKAzk6lROxXziW7GJg-127" edge="1">
          <mxGeometry relative="1" as="geometry">
            <mxPoint x="698" y="538" as="sourcePoint" />
            <mxPoint x="325" y="883" as="targetPoint" />
          </mxGeometry>
        </mxCell>
        <mxCell id="1KUKAzk6lROxXziW7GJg-134" style="edgeStyle=orthogonalEdgeStyle;rounded=0;orthogonalLoop=1;jettySize=auto;html=1;entryX=1;entryY=0.75;entryDx=0;entryDy=0;entryPerimeter=0;exitX=1;exitY=0.5;exitDx=0;exitDy=0;exitPerimeter=0;dashed=1;dashPattern=12 12;" parent="1" source="1KUKAzk6lROxXziW7GJg-127" target="1KUKAzk6lROxXziW7GJg-125" edge="1">
          <mxGeometry relative="1" as="geometry">
            <mxPoint x="363" y="883" as="sourcePoint" />
            <mxPoint x="698" y="556" as="targetPoint" />
          </mxGeometry>
        </mxCell>
      </root>
    </mxGraphModel>
  </diagram>
</mxfile>
